<svg width="18" height="16" viewBox="0 0 18 16" fill="none" xmlns="http://www.w3.org/2000/svg">
<path d="M7.35645 15.7432C6.65918 15.7432 6.09196 15.4941 5.65479 14.9961L1.38818 10.0986C1.17236 9.85514 1.02295 9.62549 0.939941 9.40967C0.862467 9.19385 0.82373 8.96143 0.82373 8.7124C0.82373 8.15902 1.00911 7.69971 1.37988 7.33447C1.75618 6.9637 2.22933 6.77832 2.79932 6.77832C3.40251 6.77832 3.90055 7.00244 4.29346 7.45068L7.32324 10.937L13.4409 1.38281C13.6789 1.01758 13.9307 0.760254 14.1963 0.61084C14.4619 0.455892 14.7856 0.378418 15.1675 0.378418C15.7319 0.378418 16.2051 0.563802 16.5869 0.93457C16.9743 1.2998 17.168 1.75635 17.168 2.3042C17.168 2.49788 17.1348 2.70264 17.0684 2.91846C17.002 3.12874 16.8968 3.33903 16.7529 3.54932L9.14111 14.855C8.74268 15.4471 8.14779 15.7432 7.35645 15.7432Z" fill="#B8B8B8"/>
</svg>
