<svg width="35" height="35" viewBox="0 0 35 35" fill="none" xmlns="http://www.w3.org/2000/svg">
<path d="M26.131 20.8835C25.7533 21.2495 25.5798 21.7789 25.6658 22.2981L26.9623 29.4731C27.0717 30.0812 26.815 30.6966 26.306 31.0481C25.8073 31.4127 25.1438 31.4564 24.5998 31.1647L18.1408 27.796C17.9163 27.6764 17.6669 27.6122 17.4117 27.605H17.0165C16.8794 27.6254 16.7452 27.6691 16.6227 27.7362L10.1623 31.121C9.84292 31.2814 9.48125 31.3383 9.12688 31.2814C8.26354 31.1181 7.6875 30.2956 7.82896 29.4279L9.12688 22.2529C9.21292 21.7293 9.03938 21.197 8.66167 20.8252L3.39563 15.721C2.95521 15.2937 2.80208 14.652 3.00333 14.0731C3.19875 13.4956 3.6975 13.0741 4.29979 12.9793L11.5477 11.9279C12.099 11.871 12.5831 11.5356 12.831 11.0397L16.0248 4.49183C16.1006 4.346 16.1983 4.21183 16.3165 4.09808L16.4477 3.996C16.5163 3.92016 16.595 3.85745 16.6825 3.80641L16.8415 3.74808L17.0894 3.646H17.7033C18.2517 3.70287 18.7344 4.031 18.9867 4.521L22.2227 11.0397C22.456 11.5166 22.9096 11.8477 23.4331 11.9279L30.681 12.9793C31.2935 13.0668 31.8054 13.4897 32.0081 14.0731C32.1992 14.6579 32.0344 15.2995 31.5852 15.721L26.131 20.8835Z" fill="#DEDEDE"/>
<g clip-path="url(#clip0_618_5458)">
<path d="M26.131 20.8835C25.7533 21.2495 25.5798 21.7789 25.6658 22.2981L26.9623 29.4731C27.0717 30.0812 26.815 30.6966 26.306 31.0481C25.8073 31.4127 25.1438 31.4564 24.5998 31.1647L18.1408 27.796C17.9163 27.6764 17.6669 27.6122 17.4117 27.605H17.0165C16.8794 27.6254 16.7452 27.6691 16.6227 27.7362L10.1623 31.121C9.84292 31.2814 9.48125 31.3383 9.12688 31.2814C8.26354 31.1181 7.6875 30.2956 7.82896 29.4279L9.12688 22.2529C9.21292 21.7293 9.03938 21.197 8.66167 20.8252L3.39563 15.721C2.95521 15.2937 2.80208 14.652 3.00333 14.0731C3.19875 13.4956 3.6975 13.0741 4.29979 12.9793L11.5477 11.9279C12.099 11.871 12.5831 11.5356 12.831 11.0397L16.0248 4.49183C16.1006 4.346 16.1983 4.21183 16.3165 4.09808L16.4477 3.996C16.5163 3.92016 16.595 3.85745 16.6825 3.80641L16.8415 3.74808L17.0894 3.646H17.7033C18.2517 3.70287 18.7344 4.031 18.9867 4.521L22.2227 11.0397C22.456 11.5166 22.9096 11.8477 23.4331 11.9279L30.681 12.9793C31.2935 13.0668 31.8054 13.4897 32.0081 14.0731C32.1992 14.6579 32.0344 15.2995 31.5852 15.721L26.131 20.8835Z" fill="#29DE97"/>
</g>
<defs>
<clipPath id="clip0_618_5458">
<rect width="17.5" height="35" fill="white"/>
</clipPath>
</defs>
</svg>
